<svg data-name="Layer 1" xmlns="http://www.w3.org/2000/svg" xmlns:xlink="http://www.w3.org/1999/xlink" width="728" height="796.38"><defs><linearGradient id="a" x1="506" y1="757.81" x2="506" y2="51.81" gradientUnits="userSpaceOnUse"><stop offset="0" stop-color="#b3b3b3" stop-opacity=".25"/><stop offset=".54" stop-color="#b3b3b3" stop-opacity=".1"/><stop offset="1" stop-color="#b3b3b3" stop-opacity=".05"/></linearGradient><linearGradient id="c" x1="49.46" y1="96.5" x2="49.46" y2="3.5" xlink:href="#a"/><linearGradient id="b" x1="627.87" y1="796.38" x2="627.87" y2="596.12" gradientUnits="userSpaceOnUse"><stop offset="0" stop-color="gray" stop-opacity=".25"/><stop offset=".54" stop-color="gray" stop-opacity=".12"/><stop offset="1" stop-color="gray" stop-opacity=".1"/></linearGradient><linearGradient id="d" x1="627.87" y1="746.82" x2="627.87" y2="645.68" xlink:href="#b"/><linearGradient id="e" x1="611" y1="802.81" x2="611" y2="96.81" xlink:href="#a"/><linearGradient id="f" x1="154.46" y1="141.5" x2="154.46" y2="48.5" xlink:href="#a"/></defs><path d="M650 694.81c0-51.76 51.11-99.48 102.87-99.48 7.93 0 15.62-2 23-.16.1-2.26.16-15.54.16-17.82V51.81H328l-92 94.5v611.5h423c-9.1-14.44-9-44.66-9-63z" transform="translate(-236 -51.81)" fill="url(#a)"/><path d="M406 653a117 117 0 0 1 117-117c3.53 0 7 .17 10.48.47V265.19h-525V694h404.91a116.74 116.74 0 0 1-7.39-41z" fill="#fcfcfc"/><path fill="#fcfcfc" d="M533.09 269.19H6.91V94.5L92 5.5h441.09v263.69z"/><path fill="#e0e0e0" d="M357.59 58.59h142.73v10.89H357.59zM357.59 98.59h142.73v10.89H357.59zM357.59 138.59h142.73v10.89H357.59z"/><path fill="#4f82ba" opacity=".5" d="M357.59 178.59h142.73v10.89H357.59z"/><path fill="#e0e0e0" d="M357.59 218.59h142.73v10.89H357.59zM357.59 258.59h142.73v10.89H357.59z"/><path fill="#4f82ba" opacity=".5" d="M84.72 343.59h142.73v10.89H84.72z"/><path fill="#e0e0e0" d="M84.72 387.13h142.73v10.89H84.72z"/><path fill="#69f0ae" opacity=".5" d="M84.72 365.36h372.56v10.89H84.72z"/><path fill="#4f82ba" opacity=".5" d="M84.72 448.82h142.73v10.89H84.72z"/><path fill="#e0e0e0" d="M84.72 492.37h142.73v10.89H84.72zM84.72 470.59h372.56v10.89H84.72z"/><path fill="#4f82ba" opacity=".5" d="M84.72 554.06h142.73v10.89H84.72z"/><path fill="#e0e0e0" d="M84.72 597.6h142.73v10.89H84.72zM84.72 575.83h305.41v10.89H84.72z"/><path fill="#4f82ba" d="M310 281H50V54l9-11h251v238z"/><path fill="url(#c)" d="M4.91 96.5H94v-93l-89.09 93z"/><path fill="#f5f5f5" d="M6.91 94.5H92v-89l-85.09 89z"/><circle cx="627.87" cy="696.25" r="100.13" fill="url(#b)" opacity=".5"/><circle cx="627.87" cy="696.25" r="93.72" fill="#3ad29f"/><path fill="url(#d)" d="M678.44 684.95h-39.28v-39.27h-22.58v39.27H577.3v22.59h39.28v39.28h22.58v-39.28h39.28v-22.59z" opacity=".5"/><path fill="#fff" d="M618.27 653.26h19.2v85.97h-19.2z"/><path fill="#fff" d="M670.86 686.65v19.2h-85.97v-19.2z"/><path d="M755 739.81c0-51.76 51.11-99.48 102.87-99.48 7.93 0 15.62-2 23-.16.1-2.26.16-15.54.16-17.82V96.81H433l-92 94.5v611.5h423c-9.1-14.44-9-44.66-9-63z" transform="translate(-236 -51.81)" fill="url(#e)"/><path d="M511 698a117 117 0 0 1 117-117c3.53 0 7 .17 10.48.47V310.19h-525V739h404.91a116.74 116.74 0 0 1-7.39-41z" fill="#fff"/><path fill="#fff" d="M638.09 314.19H111.91V139.5l85.09-89h441.09v263.69z"/><path fill="#e0e0e0" d="M462.59 103.59h142.73v10.89H462.59zM462.59 143.59h142.73v10.89H462.59zM462.59 183.59h142.73v10.89H462.59z"/><path fill="#4f82ba" opacity=".5" d="M462.59 223.59h142.73v10.89H462.59z"/><path fill="#e0e0e0" d="M462.59 263.59h142.73v10.89H462.59zM462.59 303.59h142.73v10.89H462.59z"/><path fill="#4f82ba" opacity=".5" d="M189.72 388.59h142.73v10.89H189.72z"/><path fill="#e0e0e0" d="M189.72 432.13h142.73v10.89H189.72z"/><path fill="#69f0ae" opacity=".5" d="M189.72 410.36h372.56v10.89H189.72z"/><path fill="#4f82ba" opacity=".5" d="M189.72 493.82h142.73v10.89H189.72z"/><path fill="#e0e0e0" d="M189.72 537.37h142.73v10.89H189.72zM189.72 515.59h372.56v10.89H189.72z"/><path fill="#4f82ba" opacity=".5" d="M189.72 599.06h142.73v10.89H189.72z"/><path fill="#e0e0e0" d="M189.72 642.6h142.73v10.89H189.72zM189.72 620.83h305.41v10.89H189.72z"/><path fill="#4f82ba" d="M415 326H155V99l9-11h251v238z"/><path fill="url(#f)" d="M109.91 141.5H199v-93l-89.09 93z"/><path fill="#fcfcfc" d="M111.91 139.5H197v-89l-85.09 89z"/></svg>